<svg xmlns="http://www.w3.org/2000/svg" viewBox="0 0 15 15" style="enable-background:new 0 0 15 15" xml:space="preserve"><path d="M7.5 1.5h3c.5 0 .9.1 1.4.3.3.1.6.3.8.5.2.2.4.5.5.8.2.4.2.9.3 1.4v6c0 .5-.1.9-.3 1.4-.1.3-.3.6-.5.8-.2.2-.5.4-.8.5-.4.2-.9.2-1.4.3h-6c-.5 0-.9-.1-1.4-.3-.3-.1-.6-.3-.8-.5-.2-.2-.4-.5-.5-.8-.2-.4-.2-.9-.3-1.4v-6c0-.5.1-.9.3-1.4.1-.3.3-.6.5-.8.2-.2.5-.4.8-.5.4-.2.9-.2 1.4-.3h3m0-1.3h-3c-.6 0-1.2.1-1.8.3-.5.2-.9.5-1.3.9s-.7.8-.9 1.3C.3 3.3.2 3.9.2 4.5v6c0 .6.1 1.2.3 1.8.2.5.5.9.8 1.3.4.4.8.7 1.3.8.6.2 1.2.3 1.8.3h6c.6 0 1.2-.1 1.8-.3.5-.2.9-.5 1.3-.8.4-.4.7-.8.8-1.3.2-.6.3-1.2.3-1.8v-6c0-.6-.1-1.2-.3-1.8-.2-.5-.5-.9-.8-1.3-.4-.4-.8-.7-1.3-.8-.6-.2-1.2-.3-1.8-.3C9.7.2 9.5.2 7.5.2zm0 3.4c-2.1 0-3.9 1.7-3.9 3.9s1.7 3.9 3.9 3.9 3.9-1.7 3.9-3.9-1.8-3.9-3.9-3.9zm0 6.4C6.1 10 5 8.9 5 7.5S6.1 5 7.5 5 10 6.1 10 7.5 8.9 10 7.5 10zm3.9-7.3c.5 0 .9.4.9.9s-.4.9-.9.9-.9-.4-.9-.9.4-.9.9-.9z"/></svg>