<svg xmlns="http://www.w3.org/2000/svg" width="26.484" height="26.484" viewBox="0 0 26.484 26.484"><path fill="none" d="M0 0h26.484v26.484H0z"/><path d="M1.635 14.87a2.224 2.224 0 0 1-.114-3.143 1.546 1.546 0 0 1 .114-.115C3.853 9.5 8.222 6.085 13.245 6.085s9.391 3.415 11.609 5.527a2.235 2.235 0 0 1 .1 3.158l-.1.1c-2.218 2.111-6.587 5.53-11.609 5.53s-9.392-3.415-11.61-5.53m6.7-1.629a4.906 4.906 0 1 0 4.912-4.91 4.913 4.913 0 0 0-4.912 4.91Zm2.059 0a2.851 2.851 0 0 1 2.851-2.852 2.852 2.852 0 0 1 2.852 2.85 2.852 2.852 0 0 1-2.851 2.854 2.852 2.852 0 0 1-2.855-2.85Z"/></svg>