<svg xmlns="http://www.w3.org/2000/svg" width="20" height="20" viewBox="0 0 20 20"><defs><clipPath id="a"><path d="M0 0h20v20H0z"/></clipPath></defs><g clip-path="url(#a)"><path d="M14.317 13.729v2.68H5.333V3.591h8.984v2.681h1.818V3.086a1.315 1.315 0 0 0-1.313-1.314H4.828a1.315 1.315 0 0 0-1.313 1.314v13.828a1.315 1.315 0 0 0 1.313 1.313h9.994a1.315 1.315 0 0 0 1.314-1.313v-3.185Z"/><path d="m7.579 9.783 4.64-4.5a.3.3 0 0 1 .513.217v2.253a.3.3 0 0 0 .3.3h4.693a.3.3 0 0 1 .3.3v3.289a.3.3 0 0 1-.3.3h-4.691a.3.3 0 0 0-.3.3v2.254a.3.3 0 0 1-.513.217l-4.64-4.5a.3.3 0 0 1 0-.434"/></g></svg>