<svg xmlns="http://www.w3.org/2000/svg" viewBox="0 0 17 17" style="enable-background:new 0 0 17 17" xml:space="preserve"><path d="M8.5 0C3.8 0 0 3.8 0 8.5S3.8 17 8.5 17 17 13.2 17 8.5 13.2 0 8.5 0zm.7 13.8c-.2.2-.5.3-.8.3-.3 0-.6-.1-.8-.3-.2-.2-.3-.5-.3-.8 0-.3.1-.6.3-.8.2-.2.5-.3.8-.3.3 0 .6.1.8.3.2.2.3.5.3.8 0 .3-.1.6-.3.8zm2.4-6.2c-.1.2-.3.5-.5.6-.2.2-.4.4-.7.5l-.6.6c-.2.1-.4.3-.5.6-.1.2-.2.5-.1.8H7.5c0-.3 0-.6.1-.9.1-.3.2-.5.4-.8l.6-.6c.3-.1.5-.3.7-.4.2-.1.4-.3.5-.5.1-.2.2-.4.2-.6 0-.2-.1-.5-.2-.7-.1-.2-.3-.3-.6-.4-.3-.1-.6-.1-.9-.1-.3 0-.7.1-1 .2-.4.2-.7.5-1 .8l-1.1-1c.4-.5.9-.9 1.5-1.1.6-.3 1.2-.4 1.9-.4.6 0 1.1.1 1.7.3.5.2.9.5 1.2.9.3.4.4.9.4 1.4-.1.2-.1.5-.3.8z"/></svg>