<svg xmlns="http://www.w3.org/2000/svg" width="26.484" height="26.484" viewBox="0 0 26.484 26.484"><path fill="none" d="M0 0h26.484v26.484H0z"/><path d="M21.456 22.297 4.188 5.028a.594.594 0 0 1 .838-.84l17.271 17.268a.595.595 0 0 1-.841.841Zm-19.82-7.426a2.224 2.224 0 0 1-.115-3.144c.038-.04.076-.077.115-.113a24.482 24.482 0 0 1 4.48-3.4l2.783 2.787a4.846 4.846 0 0 0-.565 2.241 4.869 4.869 0 0 0 7.148 4.343l2.029 2.029a12.62 12.62 0 0 1-4.266.788c-5.019-.003-9.391-3.416-11.609-5.531Zm15.947.612a4.854 4.854 0 0 0 .564-2.241A4.867 4.867 0 0 0 11 8.899L8.976 6.873a12.633 12.633 0 0 1 4.27-.788c5.022 0 9.392 3.416 11.609 5.528a2.234 2.234 0 0 1 .1 3.157c-.033.033-.066.068-.1.1a24.6 24.6 0 0 1-4.484 3.4Zm-4.337.613a2.851 2.851 0 0 1-2.854-2.85 2.8 2.8 0 0 1 .084-.661l3.433 3.429a2.806 2.806 0 0 1-.659.085Zm-.668-5.62a2.856 2.856 0 0 1 .667-.086 2.852 2.852 0 0 1 2.853 2.849 2.884 2.884 0 0 1-.086.669Z" stroke="rgba(0,0,0,0)" stroke-miterlimit="10"/></svg>