<svg xmlns="http://www.w3.org/2000/svg" width="20" height="20" viewBox="0 0 20 20"><defs><clipPath id="a"><path d="M0 0h20v20H0z"/></clipPath></defs><g clip-path="url(#a)"><path d="M5.682 13.729v2.68h8.984V3.591H5.682v2.681H3.864V3.086a1.315 1.315 0 0 1 1.314-1.314h9.994a1.315 1.315 0 0 1 1.313 1.313v13.829a1.315 1.315 0 0 1-1.313 1.313H5.178a1.315 1.315 0 0 1-1.314-1.313v-3.185Z"/><path d="m12.421 9.783-4.64-4.5a.3.3 0 0 0-.513.217v2.253a.3.3 0 0 1-.3.3H2.273a.3.3 0 0 0-.3.3v3.289a.3.3 0 0 0 .3.3h4.693a.3.3 0 0 1 .3.3v2.254a.3.3 0 0 0 .513.217l4.64-4.5a.3.3 0 0 0 0-.434"/></g></svg>